<svg xmlns="http://www.w3.org/2000/svg" width="98" height="28" viewBox="0 0 98 28"><path d="M93.325 14.681c-1.483 0-2.39.627-3.049 1.088-.33.23-.593.412-.857.462h-.099a.493.493 0 0 1-.379-.182c-.214-.28-.082-.758.066-1.252.016-.066.066-.23.148-.495v-.016c.478-1.5 1.912-6.065 1.912-7.795 0-1.006-.214-1.698-.66-2.143-.494-.494-1.318-.725-2.52-.725-.479 0-.858.148-1.154.445-.742.758-.676 2.34-.627 3.494.017.264.017.51.017.709-.033 2.884-.758 4.894-1.467 6.822l-.115.33-.083.132c-.082.082-.626.51-1.203.956-.956.725-1.252.857-1.351.89-.016-.033-.033-.132 0-.313.033-.182.082-.363.115-.478.033-.1.033-.132.033-.165 0-.56-.082-.923-.263-1.17-.215-.313-.577-.462-1.121-.462-1.5 0-2.34 1.17-2.703 1.665l-.016.033a2.873 2.873 0 0 0-.215.33c-.313.494-.461.708-.725.708a.413.413 0 0 1-.296-.132c-.132-.165-.132-.362-.017-.923.033-.148.066-.28.1-.412.114-.51.164-.758.065-.873-.165-.214-.874-.33-2.06-.33-1.038 0-1.83.363-2.307 1.055-.429.61-.511 1.335-.528 1.714-.05 1.022-.478 3.082-.873 4.928l-.1.131c-.774.808-2.768 2.62-4.91 2.62-1.401 0-2.291-.658-2.769-1.202-.593-.66-.857-1.418-.857-1.846 0-.165 0-.28.033-.38a.426.426 0 0 1 .429-.312c.049 0 .098 0 .164.016.083.017.182.017.33.017h.181c.066 0 1.714-.116 3.247-.84 1.714-.808 2.554-2.011 2.538-3.61-.017-.923-.23-1.516-.725-1.928-.56-.495-1.516-.725-2.917-.725-3.544 0-6.345 1.615-7.499 4.334l-.181.445-.363-.313c-1.269-1.137-1.813-2.423-1.944-2.785l-.017-.017v-.033c-.099-.494-.296-.857-.593-1.088-.297-.247-.692-.362-1.203-.362a2.91 2.91 0 0 0-1.12.247c-.644.313-.99.874-.99 1.615 0 .346.313.66.643.989.412.412.857.84.676 1.335-.33.923-1.121 2.917-1.78 3.84-.89 1.236-1.912 1.862-3.033 1.862h-.099c-.56-.016-.873-.296-1.021-.51-.313-.446-.396-1.17-.248-2.21.149-1.02.528-2.29.874-3.394.214-.692.395-1.286.462-1.648.032-.23.082-.445.131-.643.132-.61.198-1.005.066-1.186-.148-.182-.642-.28-1.434-.28-2.323 0-3.164 2.471-3.312 2.966-.116.395-.247.79-.363 1.186v.017c-.346 1.104-.708 2.258-.89 3.477l-.016.1-.066.082c-.099.115-2.522 2.834-5.125 2.834-1.138 0-2.028-.247-2.637-.741-.56-.445-.808-1.006-.94-1.385a.56.56 0 0 1-.033-.313c.412-.165 2.95-1.203 4.384-2.126 1.533-.989 2.555-1.978 2.522-3.593-.017-.922-.231-1.516-.726-1.928-.56-.494-1.516-.725-2.916-.725-2.242 0-4.269.676-5.703 1.879-1.565 1.318-2.39 3.247-2.39 5.57l.017 1.055c-.066.066-.297.214-.692.379-.396.148-1.088.346-2.06.346-1.022 0-1.945-.725-2.785-2.126-.725-1.22-1.187-2.67-1.385-3.444-.494-1.764-1.22-2.522-1.697-3.016l-.165-.165c-.297-.28-.478-.494-.362-.66.049-.065.46-.23.856-.395 1.088-.445 2.901-1.186 4.467-2.455 1.911-1.55 2.884-3.445 2.884-5.637 0-1.17-.28-2.159-.84-2.95-.561-.79-1.418-1.417-2.555-1.862-1.797-.79-3.94-.89-5.587-.89-1.319 0-5.999.116-10.383 1.533C3.144 3.49.26 6.508.013 10.726c-.082 1.302.23 2.324.906 3.049.693.725 1.747 1.12 3.033 1.12 1.417 0 2.9-.626 3.873-1.647.659-.692.906-1.385.988-1.83l.033-.197-.197.066a3.846 3.846 0 0 1-1.088.18c-.775 0-1.319-.312-1.648-.955-.28-.544-.33-1.22-.33-1.566 0-1.714 1.154-3.543 3.165-5.043 1.911-1.4 4.268-2.241 6.328-2.258-.346.511-1.269 1.929-1.73 3.198-.56 1.697-5.093 17.007-5.785 20.303-.247 1.154-.115 1.6.016 1.78.066.083.165.165.478.165h.363c.148 0 .346 0 .577.017.313.016.659.016 1.038.016 1.005 0 1.747-.082 2.175-.247.363-.132.412-.297.412-.363.116-1.302.38-3.049.742-4.762.198-.89.56-2.275.906-3.593.33-1.236.643-2.39.742-2.95.115-.61.593-.66.725-.66.412 0 .84.314 1.088.627.56.742 1.22 2.076 1.104 4.17-.099 1.664-.016 4.696 1.55 6.377.74.791 1.763 1.187 3.048 1.187h.083c1.713-.017 3.378-.709 4.482-1.27.989-.51 1.764-1.054 2.077-1.35.362.857 1.631 2.834 5.603 2.834 1.55 0 3.098-.362 4.647-1.088 1.253-.593 2.176-1.269 2.654-1.615.099-.082.198-.148.264-.197.066.099.082.23.066.395-.017.148-.066.94.477 1.566.495.544 1.335.824 2.505.824 1.995 0 4.203-.742 6.032-2.06 1.994-1.418 3.428-3.379 4.038-5.538l.165-.56.412.396c.412.412.94.774 1.516 1.07l.214.116-.033.247c-.066.412-.082.84-.082 1.27 0 .131.033 1.235.23 2.175 0 0 .198.758 1.022 1.516.462.428 1.055.758 1.714 1.005.84.297 1.83.445 2.934.445 3.296 0 5.455-1.549 6.46-2.472l.791-.725-.214 1.055c-.05.263-.214 1.071-.23 1.351 0 .264.032.412.049.494l.033.083h3.609c.214 0 .362 0 .461-.082.116-.083.132-.248.149-.413.28-5.01 2.01-7.416 2.735-8.223l.017-.017.033-.033c.181-.23.33-.412.56-.412a.36.36 0 0 1 .363.347v.032c.082.231.56 1.121 1.565 1.17h.116c.197 0 .395-.032.642-.098.66-.215 1.319-.577 1.995-1.088.131-.099.28-.23.412-.363l.873-.824-.297 1.154a14.915 14.915 0 0 0-.478 3.823c0 1.747.495 3.082 1.45 3.956.924.84 2.291 1.285 4.038 1.285h.017c.23 0 2.307-.033 4.334-1.12C95.665 24.553 97 22.03 97 18.488c0-1.236-.313-2.175-.94-2.818-.593-.675-1.516-.989-2.735-.989Zm-76.98-1.4c-.214 0-.363-.017-.412-.017a.4.4 0 0 1-.33-.181c-.197-.28-.066-.725.313-1.895.05-.182.116-.38.182-.594 1.763-5.587 2.983-8.256 3.148-8.553.164-.28.412-.445.576-.544a.947.947 0 0 1 .116-.066.405.405 0 0 1 .247-.082c.33 0 1.285.346 2.01 1.17.528.577 1.105 1.599.923 3.164-.18 1.632-.593 3.033-1.203 4.17a6.77 6.77 0 0 1-1.96 2.274 6.266 6.266 0 0 1-3.61 1.154Zm17.123 7.828c-.148-.643.38-2.143.56-2.522l.066-.148c.511-1.038 1.352-2.769 2.95-2.9.033 0 .083-.017.165-.017.346 0 .643.099.874.297.28.23.428.593.428 1.054 0 .808-.742 1.813-1.434 2.489-.94.923-2.653 1.978-3.543 2.06-.017-.066-.033-.198-.066-.313Zm29.335-2.538.066-.149c.511-1.038 1.352-2.768 2.95-2.9.033 0 .082-.017.165-.017.346 0 .66.1.873.297.28.23.429.593.429 1.055 0 .807-.742 1.813-1.434 2.488-.956.94-2.01 1.467-2.9 1.467a.52.52 0 0 1-.445-.264c-.28-.428-.033-1.301.296-1.977Zm29.582 1.928c-.379 1.434-.955 2.851-1.615 3.89-.346.56-.708.988-1.054 1.301-.363.313-.725.478-1.055.478-.593 0-1.038-.478-1.285-1.4-.231-.907-.198-2.225.115-3.626.313-1.401.84-2.686 1.467-3.527.543-.742 1.153-1.137 1.78-1.17h.016c.05 0 .115-.017.214-.017.297 0 .874.083 1.27.61.526.676.576 1.846.147 3.461Z"></path></svg>